<svg data-v-0dd9719b="" version="1.0" xmlns="http://www.w3.org/2000/svg" width="100%" height="100%"  viewBox="0 0 60.1 56" preserveAspectRatio="xMidYMid meet" color-interpolation-filters="sRGB">
  <g>
    <g transform="translate(0,0)" mask="url(#73176c26-8082-4d53-9ca0-eb2867d654ca)">
      <g>
        <rect fill="#ffffff" fill-opacity="0" stroke-width="2" x="0" y="0" width="60" height="55.733593423435984"/>
        <svg filter="url(#colors9174620196)" x="0" y="0" width="60" height="55.733593423435984">
          <svg xmlns="http://www.w3.org/2000/svg" version="1.1" x="0px" y="0px" viewBox="12 6 91.00000762939453 84.52899932861328" enable-background="new 0 0 114.667 100">
            <path d="M96.469,42.355c-0.799-0.72-6.998-6.192-12.408-7.424c-0.574,2.466-1.32,4.831-2.191,7.08  C81.928,42.009,81.988,42,82.046,42c0.022,0,0.044,0,0.067,0C85.379,42,96,49.8,96,52.737v27.648c-1-0.627-1.641-1.298-2.333-1.856  c-4.806-3.873-9.784-7.865-14.153-7.677c-4.082,0.188-8.197,3.425-12.555,6.852c-2.833,2.229-7.574,5.965-9.289,5.566  c-1.979-0.452-4.611-2.497-7.156-4.474c-4.024-3.127-8.586-6.67-13.85-6.816c-0.295-0.007-0.577,0.034-0.854,0.096  c-0.241-0.053-0.49-0.084-0.748-0.084c-4.26,0-9.072,3.917-13.727,7.692c-0.693,0.562-1.527,1.263-2.336,1.895l-0.004-27.548  C19.432,51.029,29.484,43,32.709,43c0.021,0,0.042,0,0.062,0c0.238,0,0.469-0.031,0.696-0.072c-0.79-2.21-1.479-4.536-2.017-6.979  c-5.463,0.882-12.01,6.659-12.824,7.395C15.604,46.072,12,50.113,12,53.868v31.679c0,3.007,1.781,4.18,2.547,4.544  c0.627,0.3,1.256,0.438,1.896,0.438c2.604,0,5.426-2.287,9.303-5.433c2.635-2.137,7.539-6.114,9.316-6.114  c0.262,0,0.514-0.033,0.759-0.088c0.21,0.046,0.426,0.078,0.648,0.084c2.974,0.082,6.419,2.758,9.749,5.346  c3.146,2.444,6.4,4.973,9.891,5.771c0.577,0.132,1.156,0.193,1.738,0.193c4.436,0,9.005-3.517,13.439-7.005  C74.118,81.057,77.996,78,79.838,78c0.016,0,0.032,0,0.049,0c1.777,0,6.908,4.059,9.387,6.057c4.834,3.896,8.027,6.391,11.19,4.881  c0.763-0.364,2.536-1.535,2.536-4.522V52.737C103,49.762,100.803,46.269,96.469,42.355z"/>
            <path d="M57.823,6c-0.038,0-0.116,0-0.153,0c-12.354,0-22.479,6.805-22.479,18.467c0,21.84,14.996,37.291,18.046,39.97  c0.558,0.489,2.144,0.861,4.31,0.861c2.221,0,3.587-1.839,3.812-2.048c0.766-0.709,18.941-16.765,18.941-38.605  C80.301,12.982,68.947,6,57.823,6z M57.123,36.938c-6.377,0-11.547-5.17-11.547-11.547c0-6.376,5.17-11.548,11.547-11.548  S68.67,19.016,68.67,25.392C68.67,31.769,63.5,36.938,57.123,36.938z"/>
          </svg>
        </svg>
        <defs>
          <filter id="colors9174620196">
            <feColorMatrix type="matrix" values="0 0 0 0 0.99609375  0 0 0 0 0.99609375  0 0 0 0 0.99609375  0 0 0 1 0"/>
          </filter>
          <filter id="colorsf7357419912">
            <feColorMatrix type="matrix" values="0 0 0 0 0.99609375  0 0 0 0 0.99609375  0 0 0 0 0.99609375  0 0 0 1 0"/>
          </filter>
          <filter id="colorsb3074960821">
            <feColorMatrix type="matrix" values="0 0 0 0 0  0 0 0 0 0  0 0 0 0 0  0 0 0 1 0"/>
          </filter>
        </defs>
      </g>
      <rect v-gra="id" width="72" height="67.73359298706055" transform="translate(-6, -6)" fill="url(#Ozmskqf8zpLQU8__J8r4a)"/>
    </g>
    <g transform="translate(67,27.866796493530273)">
      <g data-gra="path-name" fill-rule="">
        <g transform="scale(1)">
          <g>
            <path d="" transform="translate(0, 0)"/>
          </g>
        </g>
      </g>
    </g>
  </g>
  <defs v-gra="od"/>
  <defs v-gra="id">
    <filter id="a41e4a37-5422-4531-8878-37b79c138bb3" filterUnits="userSpaceOnUse">
      <feColorMatrix type="matrix" values="0 0 0 0 0.99609375  0 0 0 0 0.99609375  0 0 0 0 0.99609375  0 0 0 1 0"/>
    </filter>
    <linearGradient x1="0" y1="1" x2="0" y2="0" id="Ozmskqf8zpLQU8__J8r4a">
      <stop offset="0%" stop-color="#00c5fb"/>
      <stop offset="100%" stop-color="#175bea"/>
    </linearGradient>
    <filter id="42443b3f1de60f6b6fd3b6a9844b4764" filterUnits="objectBoundingBox">
      <feColorMatrix type="matrix" values="0 0 0 0 0.99609375  0 0 0 0 0.99609375  0 0 0 0 0.99609375  0 0 0 1 0"/>
    </filter>
  </defs>
  <mask v-gra="im" id="73176c26-8082-4d53-9ca0-eb2867d654ca">
    <g filter="url(#a41e4a37-5422-4531-8878-37b79c138bb3)">
      <g>
        <rect fill="#ffffff" fill-opacity="0" stroke-width="2" x="0" y="0" width="60" height="55.733593423435984"/>
        <svg x="0" y="0" width="60" height="55.733593423435984">
          <svg xmlns="http://www.w3.org/2000/svg" version="1.1" x="0px" y="0px" viewBox="12 6 91.00000762939453 84.52899932861328" enable-background="new 0 0 114.667 100">
            <path d="M96.469,42.355c-0.799-0.72-6.998-6.192-12.408-7.424c-0.574,2.466-1.32,4.831-2.191,7.08  C81.928,42.009,81.988,42,82.046,42c0.022,0,0.044,0,0.067,0C85.379,42,96,49.8,96,52.737v27.648c-1-0.627-1.641-1.298-2.333-1.856  c-4.806-3.873-9.784-7.865-14.153-7.677c-4.082,0.188-8.197,3.425-12.555,6.852c-2.833,2.229-7.574,5.965-9.289,5.566  c-1.979-0.452-4.611-2.497-7.156-4.474c-4.024-3.127-8.586-6.67-13.85-6.816c-0.295-0.007-0.577,0.034-0.854,0.096  c-0.241-0.053-0.49-0.084-0.748-0.084c-4.26,0-9.072,3.917-13.727,7.692c-0.693,0.562-1.527,1.263-2.336,1.895l-0.004-27.548  C19.432,51.029,29.484,43,32.709,43c0.021,0,0.042,0,0.062,0c0.238,0,0.469-0.031,0.696-0.072c-0.79-2.21-1.479-4.536-2.017-6.979  c-5.463,0.882-12.01,6.659-12.824,7.395C15.604,46.072,12,50.113,12,53.868v31.679c0,3.007,1.781,4.18,2.547,4.544  c0.627,0.3,1.256,0.438,1.896,0.438c2.604,0,5.426-2.287,9.303-5.433c2.635-2.137,7.539-6.114,9.316-6.114  c0.262,0,0.514-0.033,0.759-0.088c0.21,0.046,0.426,0.078,0.648,0.084c2.974,0.082,6.419,2.758,9.749,5.346  c3.146,2.444,6.4,4.973,9.891,5.771c0.577,0.132,1.156,0.193,1.738,0.193c4.436,0,9.005-3.517,13.439-7.005  C74.118,81.057,77.996,78,79.838,78c0.016,0,0.032,0,0.049,0c1.777,0,6.908,4.059,9.387,6.057c4.834,3.896,8.027,6.391,11.19,4.881  c0.763-0.364,2.536-1.535,2.536-4.522V52.737C103,49.762,100.803,46.269,96.469,42.355z"/>
            <path d="M57.823,6c-0.038,0-0.116,0-0.153,0c-12.354,0-22.479,6.805-22.479,18.467c0,21.84,14.996,37.291,18.046,39.97  c0.558,0.489,2.144,0.861,4.31,0.861c2.221,0,3.587-1.839,3.812-2.048c0.766-0.709,18.941-16.765,18.941-38.605  C80.301,12.982,68.947,6,57.823,6z M57.123,36.938c-6.377,0-11.547-5.17-11.547-11.547c0-6.376,5.17-11.548,11.547-11.548  S68.67,19.016,68.67,25.392C68.67,31.769,63.5,36.938,57.123,36.938z"/>
          </svg>
        </svg>
        <defs>
          <filter id="colors9174620196">
            <feColorMatrix type="matrix" values="0 0 0 0 0.99609375  0 0 0 0 0.99609375  0 0 0 0 0.99609375  0 0 0 1 0"/>
          </filter>
          <filter id="colorsf7357419912">
            <feColorMatrix type="matrix" values="0 0 0 0 0.99609375  0 0 0 0 0.99609375  0 0 0 0 0.99609375  0 0 0 1 0"/>
          </filter>
          <filter id="colorsb3074960821">
            <feColorMatrix type="matrix" values="0 0 0 0 0  0 0 0 0 0  0 0 0 0 0  0 0 0 1 0"/>
          </filter>
        </defs>
      </g>
    </g>
  </mask>
</svg>
